<?xml version="1.0" standalone="no"?>
<!DOCTYPE svg PUBLIC "-//W3C//DTD SVG 20010904//EN"
 "http://www.w3.org/TR/2001/REC-SVG-20010904/DTD/svg10.dtd">
<svg version="1.0" xmlns="http://www.w3.org/2000/svg"
 width="350.000000pt" height="350.000000pt" viewBox="0 0 350.000000 350.000000"
 preserveAspectRatio="xMidYMid meet">
<metadata>
Created by potrace 1.14, written by Peter Selinger 2001-2017
</metadata>
<g transform="translate(0.000000,350.000000) scale(0.100000,-0.100000)"
fill="#000000" stroke="none">
<path d="M1589 3336 c-2 -2 -29 -7 -59 -10 -135 -16 -326 -74 -470 -143 -92
-44 -230 -129 -279 -172 -13 -12 -27 -21 -30 -21 -3 0 -45 -37 -92 -82 -159
-154 -287 -335 -361 -510 l-33 -77 -55 -6 c-96 -11 -156 -33 -184 -66 -51 -61
-29 -127 73 -221 l72 -65 -6 -69 c-6 -82 -7 -239 -1 -274 2 -14 7 -53 11 -88
8 -89 58 -277 101 -380 194 -473 587 -815 1080 -942 148 -38 212 -45 419 -44
136 0 192 5 280 23 500 103 905 414 1123 862 l47 96 75 12 c131 23 200 72 200
142 0 47 -60 119 -142 171 -32 20 -36 27 -31 53 13 75 11 373 -3 460 -65 395
-243 714 -543 978 -48 43 -197 147 -209 147 -6 0 -12 3 -14 8 -6 13 -122 70
-227 112 -90 36 -234 76 -341 95 -41 8 -394 17 -401 11z m-1349 -1070 c0 -3
-11 -47 -25 -98 -14 -51 -25 -103 -25 -115 0 -38 -16 -34 -69 13 -51 46 -81
89 -81 117 0 28 37 59 85 72 49 13 115 19 115 11z m3162 -884 c39 -36 48 -51
48 -78 0 -55 -46 -85 -159 -103 -28 -4 -51 -8 -51 -7 0 1 8 24 19 51 10 28 27
85 36 127 21 89 23 89 107 10z"/>
</g>
</svg>
